<svg width="110" height="121" viewBox="0 0 110 121" fill="none" xmlns="http://www.w3.org/2000/svg">
<path d="M19.8039 45.7444C20.7419 42.8353 22.5226 40.3092 24.8953 38.5216C27.2681 36.734 30.1134 35.7749 33.0309 35.7793H44.2347V0.864258L48.9431 1.57256C59.624 3.1792 67.9439 8.87875 73.6691 18.5132C77.797 25.458 79.7159 33.119 80.6064 38.849C86.7544 43.8302 92.103 50.6887 96.5232 59.2646C100.248 66.491 103.332 74.9608 105.689 84.4391C109.671 100.454 110.21 113.738 110.231 114.296L110.233 129.669H101.985V114.565C101.882 112.331 99.2838 63.4311 74.3905 44.8111L72.9313 43.7194L72.6915 41.8513C71.4501 32.1794 67.1601 16.2048 52.4847 11.2944V44.4668H33.0309C31.8381 44.4631 30.6742 44.8533 29.703 45.5825C28.7318 46.3117 28.0022 47.3433 27.6169 48.532C24.328 58.755 18.6767 71.5477 9.86932 77.5594L12.5181 88.0192C13.4401 91.7494 15.5372 95.0395 18.4663 97.3511C21.3954 99.6627 24.9829 100.859 28.6417 100.744C36.0326 100.51 43.7253 101.526 51.5068 103.76L54.5472 104.633V129.669H46.2972V111.336C40.5962 109.917 34.7459 109.276 28.8897 109.427C23.3747 109.587 17.97 107.781 13.5517 104.302C9.13344 100.822 5.96061 95.8735 4.54755 90.2575L0.142044 72.8606L3.42297 71.3799C9.55891 68.6107 15.3762 59.5065 19.8039 45.7444Z" fill="white"/>
</svg>
