<svg width="124" height="116" viewBox="0 0 124 116" fill="none" xmlns="http://www.w3.org/2000/svg">
<path d="M97.3977 29.7987L82.2465 6.75185C81.1236 5.04727 79.631 3.64904 77.8925 2.67302C76.1541 1.69699 74.2197 1.17128 72.2498 1.13945L43.4968 0.705078H43.4375C28.5929 0.705078 17.2033 3.31975 9.86773 16.0803C3.03828 27.9583 0.125 48.1918 0.125 83.7345V88.0782H9.54985L3.48275 120.656H11.89L17.9571 88.0782H20.75C27.4871 88.1416 33.9775 85.4119 38.8196 80.4789C43.197 76.0683 46.3544 70.0343 47.951 63.0295L47.9655 62.9665L55.0406 27.2658H46.6127L39.915 61.0623C37.8752 69.9344 31.7756 79.3907 20.75 79.3907H8.39047C8.61451 48.6408 11.2733 30.4098 16.9254 20.578C21.6691 12.3249 28.603 9.39529 43.4089 9.39122L72.1313 9.8256C72.7879 9.83612 73.4327 10.0113 74.0122 10.3367C74.5917 10.662 75.0892 11.1281 75.4635 11.6964L92.6023 37.7641L115.625 41.8048V46.4089L111.786 67.9705C110.653 74.3344 108.716 77.54 100.772 78.5448L68.2092 84.4113L67.9939 120.656H76.2439L76.4158 91.7452L101.862 87.1571C107.627 86.4108 111.88 84.4545 114.862 81.1782C117.412 78.377 118.964 74.7983 119.895 69.5717L123.875 47.2163V34.4454L97.3977 29.7987Z" fill="white"/>
</svg>
