<svg width="40" height="28" viewBox="0 0 40 28" fill="none" xmlns="http://www.w3.org/2000/svg">
<path d="M28.2774 2.83214H34.5274C35.6325 2.83214 36.6923 3.12629 37.4737 3.64989C38.2551 4.17348 38.6941 4.88363 38.6941 5.62411V7.02009M28.2774 25.1679H34.5274C35.6325 25.1679 36.6923 24.8737 37.4737 24.3501C38.2551 23.8265 38.6941 23.1164 38.6941 22.3759V20.9799M13.6962 14H13.6941M28.2774 14H38.6941M38.6941 14L34.5274 11.208M38.6941 14L34.5274 16.792M4.16284 24.3694L16.6628 26.8821C17.2851 27.0073 17.9424 27.0332 18.5823 26.9578C19.2221 26.8824 19.8268 26.7078 20.3481 26.448C20.8693 26.1881 21.2926 25.8501 21.5842 25.4611C21.8758 25.0721 22.0276 24.6428 22.0274 24.2074V3.79258C22.0276 3.35724 21.8758 2.92792 21.5842 2.53889C21.2926 2.14986 20.8693 1.81192 20.3481 1.55204C19.8268 1.29217 19.2221 1.11756 18.5823 1.04218C17.9424 0.966794 17.2851 0.992716 16.6628 1.11788L4.16284 3.63064C3.30455 3.80328 2.55219 4.15673 2.0174 4.63855C1.48261 5.12037 1.1939 5.70488 1.19409 6.30534V21.6947C1.1939 22.2951 1.48261 22.8796 2.0174 23.3615C2.55219 23.8433 3.30455 24.1967 4.16284 24.3694V24.3694Z" stroke="#F76F34" stroke-width="2" stroke-linecap="round" stroke-linejoin="round"/>
</svg>
