<svg width="16" height="16" viewBox="0 0 16 16" fill="none" xmlns="http://www.w3.org/2000/svg">
<path d="M8.64868 1.24761C8.35965 0.749496 7.64032 0.749494 7.35128 1.24761L5.31574 4.75559C5.17296 5.00165 4.92618 5.16957 4.64488 5.21206L0.830144 5.78823C0.189432 5.885 -0.0353126 6.69396 0.463666 7.10736L3.30548 9.46177C3.56854 9.67971 3.69223 10.0235 3.62833 10.3591L2.88495 14.2629C2.76744 14.88 3.41528 15.3595 3.97114 15.0668L7.5632 13.1755C7.8366 13.0315 8.16337 13.0315 8.43677 13.1755L12.0288 15.0668C12.5847 15.3595 13.2325 14.88 13.115 14.2629L12.3716 10.3591C12.3077 10.0235 12.4314 9.67971 12.6945 9.46177L15.5363 7.10736C16.0353 6.69396 15.8105 5.885 15.1698 5.78823L11.3551 5.21206C11.0738 5.16957 10.827 5.00165 10.6842 4.75559L8.64868 1.24761Z" fill="#FCB017"/>
</svg>
