<svg width="56" height="56" viewBox="0 0 56 56" fill="none" xmlns="http://www.w3.org/2000/svg">
<path d="M3.00242 14.6035C1.22913 16.3768 0.69217 18.929 1.0866 21.2857C1.48104 23.6424 2.73725 25.9393 4.6597 27.8618C6.58215 29.7842 8.8808 31.0421 11.2375 31.4365C13.5941 31.831 16.1447 31.2924 17.918 29.5191C19.6912 27.7458 20.2282 25.1936 19.8338 22.8369C19.4393 20.4803 18.1831 18.1833 16.2607 16.2608C14.3382 14.3384 12.0396 13.0805 9.68292 12.6861C7.32627 12.2916 4.77571 12.8302 3.00242 14.6035ZM16.2607 16.2608C18.1831 18.1833 20.4818 19.4411 22.8384 19.8356C25.1951 20.23 27.7473 19.6897 29.5189 17.9181C31.2922 16.1448 31.8292 13.5926 31.4347 11.2359C31.0403 8.87929 29.7841 6.58229 27.8616 4.65985C25.9392 2.7374 23.6405 1.47953 21.2839 1.08509C18.9272 0.690658 16.3767 1.22928 14.6034 3.00257C12.8301 4.77586 12.2931 7.32807 12.6876 9.68473C13.082 12.0414 14.3382 14.3384 16.2607 16.2608ZM6.31698 17.9181C6.83406 17.401 7.6627 17.0895 8.90897 17.295C10.147 17.5054 11.665 18.2943 12.9461 19.5754C14.2272 20.8565 15.0177 22.3762 15.2265 23.6125C15.432 24.8588 15.1205 25.6874 14.6034 26.2045C14.0863 26.7216 13.2577 27.0331 12.0114 26.8276C10.7734 26.6172 9.25534 25.8283 7.97426 24.5472C6.69319 23.2661 5.90266 21.7464 5.69384 20.5101C5.48834 19.2638 5.79991 18.4352 6.31698 17.9181ZM17.918 6.31713C18.435 5.80006 19.2637 5.48849 20.5099 5.69399C21.7479 5.90447 23.266 6.69333 24.5471 7.97441C25.8282 9.25549 26.6187 10.7752 26.8275 12.0115C27.033 13.2578 26.7214 14.0865 26.2044 14.6035C25.6873 15.1206 24.8586 15.4322 23.6124 15.2267C22.3744 15.0162 20.8563 14.2273 19.5752 12.9463C18.2942 11.6652 17.5036 10.1454 17.2948 8.90912C17.0893 7.66284 17.4009 6.8342 17.918 6.31713ZM6.31698 34.4909C4.54369 36.2642 4.00673 38.8164 4.40117 41.1731C4.7956 43.5297 6.05182 45.8267 7.97426 47.7492C9.89671 49.6716 12.1954 50.9295 14.552 51.3239C16.9087 51.7184 19.4592 51.1797 21.2325 49.4064C23.0058 47.6332 23.5428 45.0809 23.1483 42.7243C22.7539 40.3676 21.4977 38.0706 19.5752 36.1482C17.6528 34.2257 15.3541 32.9679 12.9975 32.5734C10.6408 32.179 8.09027 32.7176 6.31698 34.4909ZM34.4908 6.31713C32.7175 8.09042 32.1805 10.6426 32.5749 12.9993C32.9694 15.3559 34.2256 17.6529 36.148 19.5754C38.0705 21.4978 40.3691 22.7557 42.7258 23.1501C45.0825 23.5446 47.633 23.006 49.4063 21.2327C51.1796 19.4594 51.7166 16.9072 51.3221 14.5505C50.9277 12.1939 49.6715 9.89686 47.749 7.97441C45.8266 6.05196 43.5279 4.79409 41.1713 4.39965C38.8146 4.00522 36.2641 4.54384 34.4908 6.31713ZM9.63155 37.8055C10.1486 37.2884 10.9773 36.9768 12.2235 37.1823C13.4615 37.3928 14.9796 38.1817 16.2607 39.4628C17.5417 40.7438 18.3323 42.2636 18.5411 43.4999C18.7466 44.7462 18.435 45.5748 17.918 46.0919C17.4009 46.609 16.5722 46.9205 15.326 46.715C14.0896 46.5062 12.5699 45.7157 11.2888 44.4346C10.0077 43.1535 9.21723 41.6338 9.00841 40.3975C8.80291 39.1512 9.11447 38.3225 9.63155 37.8055ZM37.8053 9.63169C38.3224 9.11462 39.151 8.80305 40.3973 9.00855C41.6353 9.21903 43.1534 10.0079 44.4345 11.289C45.7155 12.5701 46.5061 14.0898 46.7149 15.3261C46.9204 16.5724 46.6088 17.401 46.0917 17.9181C45.5747 18.4352 44.746 18.7467 43.4998 18.5412C42.2618 18.3308 40.7437 17.5419 39.4626 16.2608C38.1815 14.9797 37.391 13.46 37.1822 12.2237C36.9767 10.9774 37.2883 10.1488 37.8053 9.63169ZM27.033 27.0331C24.8238 29.2423 24.7161 32.2171 25.2183 34.234C25.7254 36.246 26.3088 37.7574 26.3055 38.6358C26.3121 39.1495 25.3144 41.3504 24.4974 43.8678C24.0897 45.1273 23.8179 46.536 23.9803 48.1138C24.1377 49.6965 24.8586 51.3786 26.206 52.726C29.388 55.908 34.625 55.908 37.807 52.726C39.2422 51.2908 40.2763 49.3286 41.3287 47.4475C42.3778 45.55 43.6058 43.606 43.6058 43.606C43.6058 43.606 45.5498 42.3779 47.4408 41.3289C49.3234 40.2748 51.2857 39.2407 52.7209 37.8055C55.9028 34.6235 55.9028 29.3865 52.7209 26.2045C51.405 24.8886 49.7162 24.171 48.1633 24.0335C46.6088 23.8876 45.2349 24.2108 43.9688 24.5986C41.4331 25.3775 39.108 26.3106 38.634 26.3073C37.8435 26.3122 36.3138 25.6775 34.2853 25.1737C32.2534 24.6632 29.2538 24.8124 27.033 27.0331ZM30.3476 30.3477C31.4414 29.2539 31.8275 29.3981 33.1417 29.7279C34.4593 30.0511 36.2243 31.0736 38.6323 31.0753C41.3585 31.067 43.3837 29.6384 45.3112 29.0501C46.2757 28.7551 47.1126 28.6308 47.7457 28.6871C48.3755 28.7435 48.8163 28.9291 49.403 29.5158C50.7951 30.9079 50.7951 33.0955 49.403 34.4876C48.9224 34.9682 47.0099 36.1515 45.1537 37.179C43.3025 38.2115 41.6403 38.9357 40.2879 40.2881C38.9356 41.6404 38.2114 43.3027 37.1789 45.1539C36.1514 47.01 34.9681 48.9225 34.4875 49.4031C33.0953 50.7952 30.9077 50.7952 29.5156 49.4031C28.8477 48.7352 28.6439 48.253 28.5809 47.6398C28.5196 47.0282 28.6936 46.188 28.9969 45.2583C29.6001 43.3955 31.0685 41.43 31.0685 38.6291C31.0619 36.1929 29.9879 34.3898 29.6681 33.0855C29.3399 31.7895 29.2322 31.4498 30.3393 30.3427L30.3476 30.3477Z" fill="#1A1D28"/>
</svg>
