<svg width="16" height="20" viewBox="0 0 16 20" fill="none" xmlns="http://www.w3.org/2000/svg">
<path fill-rule="evenodd" clip-rule="evenodd" d="M3.30627 5.75828L3.64933 8.84584L2.95511 8.90126C1.98701 8.97855 1.19651 9.70628 1.03958 10.6647C0.677888 12.8736 0.677888 15.1266 1.03958 17.3355C1.19651 18.2939 1.98701 19.0217 2.95511 19.0989L4.45124 19.2184C6.81338 19.407 9.1868 19.407 11.5489 19.2184L13.0451 19.0989C14.0132 19.0217 14.8037 18.2939 14.9606 17.3355C15.3223 15.1266 15.3223 12.8736 14.9606 10.6647C14.8037 9.70628 14.0132 8.97855 13.0451 8.90126L12.3507 8.84583L12.6938 5.75828C12.7342 5.3943 12.7342 5.02696 12.6938 4.66298L12.671 4.45809C12.4295 2.2847 10.7209 0.565038 8.54916 0.309534C8.18434 0.266614 7.81574 0.266614 7.45091 0.309534C5.27913 0.565038 3.57053 2.2847 3.32904 4.45809L3.30627 4.66298C3.26583 5.02696 3.26583 5.3943 3.30627 5.75828ZM8.3739 1.79926C8.12551 1.77004 7.87456 1.77004 7.62617 1.79926C6.14755 1.97322 4.98428 3.14402 4.81986 4.62373L4.7971 4.82863C4.76889 5.08252 4.76889 5.33875 4.7971 5.59263L5.1459 8.73182C7.0467 8.60992 8.95337 8.60991 10.8542 8.73182L11.203 5.59263C11.2312 5.33874 11.2312 5.08252 11.203 4.82863L11.1802 4.62373C11.0158 3.14402 9.85253 1.97322 8.3739 1.79926ZM8.00006 12.5001C7.17163 12.5001 6.50006 13.1717 6.50006 14.0001C6.50006 14.8285 7.17163 15.5001 8.00006 15.5001C8.82849 15.5001 9.50006 14.8285 9.50006 14.0001C9.50006 13.1717 8.82849 12.5001 8.00006 12.5001Z" fill="#FC895E"/>
</svg>
