<svg width="34" height="34" viewBox="0 0 34 34" fill="none" xmlns="http://www.w3.org/2000/svg">
<path d="M7.63347 0.537151C13.8086 -0.153008 20.1914 -0.153008 26.3665 0.537151C28.6849 0.796267 30.7201 2.05002 32.0075 3.8708L16 19.8783L11.0607 14.939C10.4749 14.3532 9.52513 14.3532 8.93934 14.939C8.35355 15.5248 8.35355 16.4745 8.93934 17.0603L14.9393 23.0603C15.5251 23.6461 16.4749 23.6461 17.0607 23.0603L33.2915 6.82944C33.3365 7.04857 33.3723 7.27109 33.3987 7.49661C34.1372 13.8105 34.1372 20.1888 33.3987 26.5027C32.969 30.1766 30.0192 33.0539 26.3665 33.4621C20.1914 34.1523 13.8086 34.1523 7.63346 33.4621C3.9807 33.0539 1.03091 30.1766 0.601209 26.5027C-0.137252 20.1888 -0.137252 13.8105 0.601209 7.49661C1.03091 3.82269 3.98071 0.9454 7.63347 0.537151Z" fill="#F76F34"/>
</svg>
